<?xml version="1.0" encoding="UTF-8"?>
<svg viewBox="0 0 766.25 768.75" xmlns="http://www.w3.org/2000/svg">
 <g transform="matrix(1.25,0,0,-1.25,0,768.75)">
  <g transform="scale(.24)">
   <path d="m345.25 2484.2c-172.27-0.41-269.09-89.45-269-271v-1876c-0.0859-170.08 86.957-259.18 259-259h1883c172.57-0.1836 259.75 84.484 260 259v1876c-0.25 177.11-87.43 270.59-265 271 0 0-1868.6 0.18-1868 0"/>
   <path d="m345.25 2484.2c-172.27-0.41-269.09-89.45-269-271v-1876c-0.0859-170.08 86.957-259.18 259-259h1883c172.57-0.1836 259.75 84.484 260 259v1876c-0.25 177.11-87.43 270.59-265 271 0 0-1868.6 0.18-1868 0z" fill="#0099ff" stroke="#fff" stroke-miterlimit="10" stroke-width="100"/>
   <path d="m958.25,2001.25h124c-.38,48.54-12.24,155.87 117,156 98.1-.13 93-84 93-84s4.11-55.41-79-96c-75-37.37-81.95-89.21-82-112v-144h125v93c-.42,34.86 24.29,53.82 80,94 55,39.7 91.57,77.64 92,164-.43,85.37-85.44,215.16-241,215 0,0-106.36,1.16-168-76-60.934-76.6-63.898-121.53-61-210" fill="#fff"/>
   <path d="m1131.2 1546.2h124v130h-124v-130z" fill="#fff"/>
   <path d="m2055.25,869.25c180.85.242 234.94,148.51 235,234-.06,106.27-91.52,218.96-215,219h-289v249l-1288-273v-71l1288-257v237c0,0 276.68.3 278,0 64.64.3 111.86-66.92 112-108-.14-52.92-31.63-112.293-112-112 0,0-90.75,8.766-91-56 .25-65.715 69.1-61.758 82-62" fill="#fff"/>
   <path d="m463.25,1290.25v-55h-186c-40.957.41-42.441,54.83 0,55 1.418.34 186,0 186,0" fill="#fff"/>
   <path d="m1663.25,625.25c0,0 54.15.27 70,0 15.46.27 47.76-14.414 48-44v-253l-153,44c0,0-832.66.035-877,0-43.734.035-61.242,36.664-61,56-.242,19.805 15.313,56.77 61,57h442v26c0,0-397.66-.043-442,0-43.734-.043-61.242,36.828-61,56-.242,19.957 15.313,55.844 61,56h442v24c0,0-397.66-.148-442,0-43.734-.148-61.242,35.637-61,55-.242,19.773 15.313,58.977 61,59h442v24h-442c-43.977-.379-61.242,38.969-61,59-.242,19.105 15.07,56.945 61,57h369l-124,34c-31.359,10.953-47.324,39.203-39,71 9.289,32.78 35.891,46.33 81,38l743-144v-144c-.24-34.66-23.73-57.16-49-57h-69c-43.7-.16-43.7-73.73 0-74" fill="#fff"/>
  </g>
 </g>
</svg>
